<?xml version="1.0" encoding="UTF-8"?>
<svg xmlns="http://www.w3.org/2000/svg" xmlns:xlink="http://www.w3.org/1999/xlink" version="1.1" id="Layer_1" x="0px" y="0px" width="100%" viewBox="0 0 172 172" enable-background="new 0 0 172 172" xml:space="preserve" style="background: transparent;">

<path fill="#4E4E4E" opacity="1.000000" stroke="none" d=" M82.771019,97.737801   C89.907845,91.264534 96.908241,85.165550 103.648300,78.791290   C113.792107,69.198021 123.691711,59.346581 133.831268,49.748730   C136.819366,46.920269 140.241211,44.543747 143.512405,42.022572   C146.285583,39.885242 148.654709,40.029152 150.982727,42.999889   C162.358948,57.516792 166.302429,73.800560 164.292435,92.109192   C162.660065,106.978020 156.890442,119.930122 148.499878,131.872849   C141.967911,141.170105 132.843536,147.701828 123.375404,153.794922   C111.915939,161.169495 99.025391,163.855759 85.843910,164.806625   C73.012077,165.732269 61.006447,161.867828 49.963066,155.399033   C45.760056,152.937073 41.842033,149.929169 38.034496,146.870834   C35.136509,144.543091 33.970428,141.999069 37.615383,138.783356   C50.907639,127.056427 64.015587,115.120346 77.168846,103.236359   C79.020645,101.563263 80.738319,99.741714 82.771019,97.737801  M52.346008,140.965958   C50.246078,139.001602 48.146152,137.037262 45.883492,134.920685   C43.737682,136.760971 41.408833,138.758240 39.092438,140.744827   C57.540604,163.572296 100.478973,169.238190 132.992676,142.224304   C163.009186,117.285225 171.227066,72.843758 145.833832,43.705006   C143.481964,45.711937 141.123398,47.724602 138.772354,49.730831   C141.089600,52.783993 143.365723,54.928555 144.609604,57.560898   C152.520447,74.302116 153.702499,91.656837 147.686752,109.139328   C145.781769,114.675468 143.376053,120.644714 137.034500,122.312294   C151.363327,102.599159 153.327286,81.728317 143.045502,59.627312   C140.304459,53.735355 136.271149,51.498024 132.985901,54.556377   C117.572838,68.904953 102.267593,83.369911 86.795609,97.654396   C77.542824,106.197021 68.055305,114.485435 58.669849,122.884270   C55.706383,125.536217 52.493896,127.956932 49.815197,130.869568   C45.216011,135.870392 53.553173,137.156296 52.346008,140.965958  z"/>
<path fill="#4E4E4E" opacity="1.000000" stroke="none" d=" M81.963875,38.582237   C81.982162,34.125530 82.307945,30.093279 81.892509,26.138899   C81.486748,22.276558 80.324295,18.493711 79.468536,14.558826   C87.941635,18.287855 94.802727,36.022583 92.836937,51.510525   C90.657097,68.685013 78.833801,82.602753 60.869694,87.789848   C44.255028,92.587303 24.302551,87.261452 17.442852,76.927933   C49.685886,82.558624 73.082268,73.153084 81.963875,38.582237  z"/>
<path fill="#4E4E4E" opacity="1.000000" stroke="none" d=" M10.572331,45.313004   C6.138449,34.788605 6.685714,22.963245 14.650021,15.661975   C17.094589,13.420918 22.943668,14.893543 27.233757,14.665601   C27.012123,18.784050 28.183592,23.726698 26.321281,26.874475   C19.260454,38.809063 19.516899,44.396385 20.433321,55.107037   C15.909576,54.526592 12.840803,51.518757 10.572331,45.313004  z"/>
<path fill="#4E4E4E" opacity="1.000000" stroke="none" d=" M61.095825,18.860388   C63.128361,22.065239 64.338943,24.388901 60.239540,26.923029   C58.911209,27.744162 59.167435,31.429621 59.037560,33.823265   C58.796967,38.257500 55.512009,42.493130 51.670822,42.964058   C44.676315,43.821587 39.810837,41.360092 38.140560,35.691620   C46.821072,34.235683 48.695488,28.290394 48.124298,20.483948   C47.966393,18.325876 46.312508,14.474274 50.558346,14.193618   C54.499302,13.933117 59.569878,12.134621 61.095825,18.860388  z"/>
<path fill="#000000" opacity="1.000000" stroke="none" d=" M53.036598,141.092865   C53.553173,137.156296 45.216011,135.870392 49.815197,130.869568   C52.493896,127.956932 55.706383,125.536217 58.669849,122.884270   C68.055305,114.485435 77.542824,106.197021 86.795609,97.654396   C102.267593,83.369911 117.572838,68.904953 132.985901,54.556377   C136.271149,51.498024 140.304459,53.735355 143.045502,59.627312   C153.327286,81.728317 151.363327,102.599159 137.000244,122.639656   C136.966003,122.967018 137.032578,122.924408 136.727127,123.070419   C133.467010,126.124474 130.647171,129.186829 127.530914,131.909943   C119.951103,138.533463 112.275421,144.904755 101.981445,147.210480   C88.947182,150.129990 76.161079,149.909134 63.468025,145.683746   C61.632591,145.072754 59.772274,144.536530 57.954922,143.989960   C57.986374,144.014236 58.049263,144.062820 58.085800,143.688477   C56.389458,142.531784 54.656578,141.749435 52.952019,140.998444   C52.980347,141.029800 53.036598,141.092865 53.036598,141.092865  M116.913383,85.293999   C115.323715,83.255653 113.848732,81.102814 112.036026,79.287148   C111.719063,78.969658 109.981995,80.069946 108.900795,80.515442   C109.750450,82.498497 110.153999,84.980484 111.611526,86.283699   C112.534904,87.109314 115.028381,86.178909 116.913383,85.293999  M124.356056,117.941971   C122.763542,118.034775 121.171036,118.127571 119.578529,118.220367   C119.692505,119.266220 119.418808,120.692894 119.997627,121.282127   C121.391792,122.701401 123.084793,123.938942 124.875275,124.792458   C125.450485,125.066658 126.707642,123.910309 127.652809,123.408440   C126.738411,121.748940 125.824013,120.089432 124.356056,117.941971  M129.513870,94.829758   C131.467316,97.073517 133.473221,99.583000 136.591888,96.751015   C137.010437,96.370941 136.196106,93.955330 135.352112,93.030266   C134.237427,91.808540 132.529755,91.127846 131.076996,90.214600   C130.450531,91.521782 129.824066,92.828964 129.513870,94.829758  M84.287827,133.221848   C83.262138,134.159058 81.197693,135.537994 81.378128,135.962280   C82.615639,138.872223 84.299263,141.620911 88.359406,140.594864   C89.935516,136.831970 88.065620,134.890366 84.287827,133.221848  M130.161438,72.530548   C130.406326,73.452202 130.353485,74.777733 130.952362,75.219231   C132.698975,76.506859 134.706024,77.441246 136.610977,78.514122   C137.015945,77.356544 138.084076,75.525116 137.711075,75.158020   C136.094894,73.567474 134.096146,72.341743 132.136307,71.147812   C131.807999,70.947815 130.984985,71.559875 130.161438,72.530548  M113.704056,103.635735   C112.562141,102.050667 111.585129,100.294250 110.200363,98.961517   C109.613892,98.397095 107.837021,98.282516 107.205627,98.761017   C106.496880,99.298172 106.078316,100.794128 106.220894,101.772804   C106.684616,104.956032 110.606804,106.237808 113.704056,103.635735  M95.017914,119.330727   C96.364014,119.711235 97.710106,120.091751 99.056206,120.472267   C99.494186,120.087166 99.932167,119.702057 100.370155,119.316956   C99.292068,117.467209 98.399330,115.461609 97.041664,113.846939   C96.522598,113.229630 94.939743,113.506790 93.841667,113.376328   C94.058723,115.190338 94.275780,117.004341 95.017914,119.330727  M62.109779,133.431702   C63.323715,133.030838 64.537651,132.629990 65.751587,132.229126   C64.398659,130.067276 63.045734,127.905441 61.530849,125.484802   C57.498466,128.935669 59.367836,130.967209 62.109779,133.431702  M76.960747,117.374352   C78.283157,118.287430 79.605560,119.200508 80.927971,120.113579   C81.379066,119.786507 81.830154,119.459442 82.281250,119.132370   C81.596130,117.375679 81.131966,115.473404 80.117455,113.933762   C79.709999,113.315376 78.093864,113.493416 77.027847,113.308968   C76.845467,114.468994 76.663086,115.629013 76.960747,117.374352  z"/>
<path fill="#000000" opacity="1.000000" stroke="none" d=" M136.932419,122.987854   C143.376053,120.644714 145.781769,114.675468 147.686752,109.139328   C153.702499,91.656837 152.520447,74.302116 144.609604,57.560898   C143.365723,54.928555 141.089600,52.783993 138.772354,49.730831   C141.123398,47.724602 143.481964,45.711937 145.833832,43.705006   C171.227066,72.843758 163.009186,117.285225 132.992676,142.224304   C100.478973,169.238190 57.540604,163.572296 39.092438,140.744827   C41.408833,138.758240 43.737682,136.760971 45.883492,134.920685   C48.146152,137.037262 50.246078,139.001602 52.691303,141.029419   C53.036598,141.092865 52.980347,141.029800 53.107204,141.306198   C54.839130,142.409348 56.444195,143.236084 58.049263,144.062820   C58.049263,144.062820 57.986374,144.014236 58.117271,144.304962   C60.581944,145.780975 62.829147,147.196274 65.264114,148.112671   C77.344048,152.659073 89.727776,151.730560 102.009254,149.411804   C112.942421,147.347580 121.340317,140.240173 129.662506,133.535690   C132.880325,130.943390 134.619675,126.515854 137.032578,122.924408   C137.032578,122.924408 136.966003,122.967018 136.932419,122.987854  z"/>
<path fill="#4E4E4E" opacity="1.000000" stroke="none" d=" M136.727127,123.070427   C134.619675,126.515854 132.880325,130.943390 129.662506,133.535690   C121.340317,140.240173 112.942421,147.347580 102.009254,149.411804   C89.727776,151.730560 77.344048,152.659073 65.264114,148.112671   C62.829147,147.196274 60.581944,145.780975 58.085823,144.280701   C59.772274,144.536530 61.632591,145.072754 63.468025,145.683746   C76.161079,149.909134 88.947182,150.129990 101.981445,147.210480   C112.275421,144.904755 119.951103,138.533463 127.530914,131.909943   C130.647171,129.186829 133.467010,126.124474 136.727127,123.070427  z"/>
<path fill="#4E4E4E" opacity="1.000000" stroke="none" d=" M116.865540,85.665031   C115.028381,86.178909 112.534904,87.109314 111.611526,86.283699   C110.153999,84.980484 109.750450,82.498497 108.900803,80.515442   C109.981995,80.069946 111.719063,78.969658 112.036026,79.287148   C113.848732,81.102814 115.323715,83.255653 116.865540,85.665031  z"/>
<path fill="#4E4E4E" opacity="1.000000" stroke="none" d=" M124.632843,118.185951   C125.824013,120.089432 126.738411,121.748940 127.652809,123.408440   C126.707642,123.910309 125.450485,125.066658 124.875275,124.792458   C123.084793,123.938942 121.391792,122.701401 119.997627,121.282127   C119.418808,120.692894 119.692505,119.266220 119.578522,118.220367   C121.171036,118.127571 122.763542,118.034775 124.632843,118.185951  z"/>
<path fill="#4E4E4E" opacity="1.000000" stroke="none" d=" M129.355743,94.482956   C129.824066,92.828964 130.450531,91.521782 131.076996,90.214592   C132.529755,91.127846 134.237427,91.808540 135.352112,93.030266   C136.196106,93.955330 137.010437,96.370941 136.591888,96.751015   C133.473221,99.583000 131.467316,97.073517 129.355743,94.482956  z"/>
<path fill="#4E4E4E" opacity="1.000000" stroke="none" d=" M84.630310,133.380112   C88.065620,134.890366 89.935516,136.831970 88.359406,140.594864   C84.299263,141.620911 82.615639,138.872223 81.378128,135.962280   C81.197693,135.537994 83.262138,134.159058 84.630310,133.380112  z"/>
<path fill="#4E4E4E" opacity="1.000000" stroke="none" d=" M130.276001,72.163628   C130.984985,71.559875 131.807999,70.947815 132.136307,71.147812   C134.096146,72.341743 136.094894,73.567474 137.711075,75.158020   C138.084076,75.525116 137.015945,77.356544 136.610962,78.514122   C134.706024,77.441246 132.698975,76.506859 130.952362,75.219231   C130.353485,74.777733 130.406326,73.452202 130.276001,72.163628  z"/>
<path fill="#4E4E4E" opacity="1.000000" stroke="none" d=" M113.687744,103.995270   C110.606804,106.237808 106.684616,104.956032 106.220894,101.772804   C106.078316,100.794128 106.496880,99.298172 107.205627,98.761017   C107.837021,98.282516 109.613892,98.397095 110.200363,98.961517   C111.585129,100.294250 112.562141,102.050667 113.687744,103.995270  z"/>
<path fill="#4E4E4E" opacity="1.000000" stroke="none" d=" M94.755371,119.074539   C94.275780,117.004341 94.058723,115.190338 93.841667,113.376328   C94.939743,113.506790 96.522598,113.229630 97.041664,113.846939   C98.399330,115.461609 99.292068,117.467209 100.370155,119.316956   C99.932167,119.702057 99.494186,120.087166 99.056206,120.472267   C97.710106,120.091751 96.364014,119.711235 94.755371,119.074539  z"/>
<path fill="#4E4E4E" opacity="1.000000" stroke="none" d=" M61.821999,133.199249   C59.367836,130.967209 57.498466,128.935669 61.530849,125.484802   C63.045734,127.905441 64.398659,130.067276 65.751587,132.229126   C64.537651,132.629990 63.323715,133.030838 61.821999,133.199249  z"/>
<path fill="#4E4E4E" opacity="1.000000" stroke="none" d=" M76.720726,117.081696   C76.663086,115.629013 76.845467,114.468994 77.027847,113.308968   C78.093864,113.493416 79.709999,113.315376 80.117455,113.933762   C81.131966,115.473404 81.596130,117.375679 82.281250,119.132370   C81.830154,119.459442 81.379066,119.786507 80.927971,120.113579   C79.605560,119.200508 78.283157,118.287430 76.720726,117.081696  z"/>
<path fill="#4E4E4E" opacity="1.000000" stroke="none" d=" M58.085800,143.688477   C56.444195,143.236084 54.839130,142.409348 53.078880,141.274841   C54.656578,141.749435 56.389458,142.531784 58.085800,143.688477  z"/>
</svg>